<svg xmlns="http://www.w3.org/2000/svg" xmlns:xlink="http://www.w3.org/1999/xlink" width="1080" zoomAndPan="magnify" viewBox="0 0 810 809.999993" height="1080" preserveAspectRatio="xMidYMid meet" version="1.0"><defs><g/><clipPath id="a58b3231bf"><path d="M 0 44.941406 L 810 44.941406 L 810 768.949219 L 0 768.949219 Z M 0 44.941406 " clip-rule="nonzero"/></clipPath><clipPath id="f78d98a2a7"><path d="M 0 44.941406 L 0 768.785156 L 810.003906 768.785156 L 810.003906 44.941406 Z M 493.136719 438.441406 C 506.101562 438.125 519.050781 438.675781 532.003906 439.164062 C 551.34375 439.9375 570.710938 440.328125 590.054688 440.925781 C 598.46875 441.300781 606.902344 441.226562 615.289062 442.070312 C 618.671875 442.414062 622.082031 442.949219 625.449219 443.4375 C 632.71875 444.636719 640.015625 445.734375 647.335938 446.601562 C 652.949219 447.152344 658.566406 447.640625 664.175781 448.1875 C 668.824219 448.488281 673.410156 449.347656 677.886719 450.605469 C 680.464844 451.339844 682.675781 452.855469 685.082031 453.96875 C 687.785156 455.109375 690.398438 456.429688 692.949219 457.878906 C 695.488281 459.351562 697.417969 461.425781 699.128906 463.699219 C 699.480469 462.972656 700.097656 462.578125 700.75 462.527344 C 701.511719 462.46875 702.328125 462.882812 702.851562 463.789062 C 703.628906 463.128906 704.550781 462.703125 705.644531 462.785156 C 705.890625 460.71875 706.109375 458.644531 706.378906 456.582031 C 706.582031 455.019531 706.8125 453.460938 707.058594 451.90625 C 707.179688 451.140625 707.265625 450.367188 707.484375 449.628906 C 707.613281 449.222656 707.699219 448.425781 708.023438 448.339844 C 708.070312 448.328125 708.121094 448.332031 708.179688 448.355469 C 710.570312 449.214844 711.53125 449.753906 711.875 450.503906 C 711.878906 450.488281 711.886719 450.453125 711.886719 450.441406 L 711.902344 450.441406 C 711.902344 450.472656 711.886719 450.507812 711.886719 450.542969 C 712.179688 451.226562 711.992188 452.074219 711.886719 453.515625 C 711.65625 456.625 711.53125 459.746094 711.386719 462.863281 C 712.378906 463.191406 712.582031 464.480469 711.886719 466.066406 C 712.410156 466.074219 712.828125 466.203125 713.175781 466.414062 C 713.359375 466.234375 713.546875 466.121094 714.269531 466.144531 C 714.386719 465.128906 714.535156 464.101562 714.65625 464.109375 C 716.152344 464.207031 717.597656 464.679688 719.070312 464.960938 C 719.347656 466.492188 719.367188 468.046875 719.40625 469.59375 C 719.320312 471.738281 719.222656 473.886719 718.996094 476.019531 C 718.742188 477.871094 718.503906 479.722656 718.324219 481.582031 C 718.121094 483.472656 718.058594 485.367188 718.121094 487.269531 C 718.21875 489.578125 718.316406 491.886719 718.390625 494.195312 C 718.457031 496.300781 718.5 498.410156 718.53125 500.515625 C 718.550781 501.820312 718.558594 503.113281 718.570312 504.417969 C 718.617188 508.871094 714.125 508.921875 714.078125 504.46875 C 714.078125 504.34375 714.078125 504.21875 714.078125 504.09375 C 713.929688 504.113281 713.789062 504.128906 713.652344 504.148438 C 712.882812 504.523438 712.070312 504.835938 711.308594 505.226562 C 711.066406 504.945312 710.785156 504.691406 710.5625 504.390625 C 710.269531 504.246094 710.132812 503.878906 709.984375 503.21875 C 709.976562 503.199219 709.964844 503.179688 709.957031 503.15625 C 709.613281 502.125 709.515625 500.96875 709.289062 499.9375 C 708.511719 499.996094 707.71875 499.882812 706.933594 499.808594 C 706.929688 499.824219 706.933594 499.84375 706.933594 499.859375 L 706.945312 499.859375 C 706.835938 504.3125 702.332031 504.3125 702.4375 499.859375 C 702.453125 499.382812 702.472656 498.90625 702.492188 498.429688 C 702.4375 498.695312 702.402344 498.964844 702.351562 499.230469 C 702.226562 499.617188 702.375 500.445312 701.976562 500.386719 C 701.113281 500.265625 700.210938 500.066406 699.375 499.742188 C 697.003906 501.273438 697.34375 499.972656 697.753906 498.84375 C 697.734375 498.863281 697.707031 498.875 697.6875 498.894531 C 695.351562 500.59375 694.054688 500.765625 691.996094 498.109375 C 691.683594 497.707031 691.507812 497.015625 691.390625 496.269531 C 690.496094 496.554688 689.597656 496.839844 688.6875 497.09375 C 683.921875 498.410156 679.027344 499.1875 674.140625 499.910156 C 667.96875 500.882812 661.734375 501.121094 655.5 501.328125 C 649.328125 501.414062 643.152344 501.710938 636.984375 501.816406 C 634.410156 501.582031 631.757812 501.589844 629.132812 501.429688 C 629.378906 507.605469 629.597656 513.773438 629.953125 519.941406 C 630.28125 526.515625 631.535156 533.039062 631.640625 539.625 C 631.664062 541.023438 631.59375 542.410156 631.5625 543.808594 C 631.0625 549.8125 629.289062 554.855469 625.550781 559.050781 C 625.507812 559.242188 625.496094 559.441406 625.449219 559.628906 C 625.207031 560.582031 624.886719 561.523438 624.597656 562.460938 C 623.085938 564.429688 621.859375 566.652344 620.054688 568.359375 C 618.773438 569.566406 617.078125 570.238281 615.507812 571.035156 C 610.824219 573.421875 605.546875 574.378906 600.421875 575.195312 C 590.492188 576.5 580.488281 577.085938 570.488281 577.460938 C 569.734375 577.460938 568.628906 577.445312 567.757812 577.445312 C 566.558594 578.054688 565.355469 578.667969 564.164062 579.238281 C 559.613281 581.40625 556.34375 582.617188 551.691406 584.464844 C 546.566406 586.476562 541.300781 588.078125 535.96875 589.445312 C 532.898438 590.230469 529.988281 591.035156 526.753906 590.847656 C 524.777344 590.734375 522.855469 590.148438 520.90625 589.792969 C 518.300781 587.402344 514.9375 585.632812 513.078125 582.621094 C 512.632812 581.898438 512.339844 581.089844 512.113281 580.265625 C 509.136719 580.304688 506.710938 579.347656 503.5 575.414062 C 484.617188 574.558594 482.78125 574.480469 455.105469 573.097656 C 415.078125 570.9375 375.046875 568.644531 335.074219 565.644531 C 327.792969 574.113281 312.210938 575.816406 294.699219 562.335938 C 294.691406 562.328125 294.679688 562.328125 294.675781 562.320312 C 291.316406 561.984375 287.957031 561.683594 284.605469 561.316406 C 283.824219 562.015625 282.796875 563.074219 282.25 563.558594 C 277.085938 568.683594 270.777344 572.070312 264.226562 575.054688 C 258.433594 576.945312 253.675781 579.097656 248.519531 570.855469 C 247.113281 571.070312 245.300781 570.171875 243.714844 569.917969 C 243.769531 570.082031 243.804688 570.222656 243.882812 570.417969 C 241.640625 570.363281 238.183594 570.292969 235.011719 570.1875 C 222.089844 573.21875 209.125 576.097656 196.324219 579.625 C 187.734375 581.988281 184.796875 573.511719 193.375 571.113281 C 195.574219 570.5 197.789062 569.964844 199.992188 569.390625 C 198.820312 569.238281 197.664062 569.042969 196.542969 568.71875 C 194.648438 568.839844 192.753906 568.964844 191.289062 569.054688 C 189.851562 575.125 186.339844 575.390625 170.976562 573.210938 C 170.128906 573.09375 169.535156 571.519531 169.09375 569.492188 C 167.75 571.105469 165.917969 571.398438 162.632812 570.1875 C 157.011719 574.761719 151.886719 579.875 147.492188 585.660156 C 142.101562 592.753906 134.882812 587.085938 140.410156 580.101562 C 144.503906 574.929688 148.921875 570.003906 153.890625 565.65625 C 152.085938 564.601562 150.414062 563.652344 148.136719 562.246094 C 146.484375 561.226562 148.292969 558.371094 148.417969 556.4375 C 148.558594 554.277344 148.761719 552.109375 148.933594 549.949219 C 150.011719 539.496094 150.480469 528.9375 152.242188 518.566406 C 152.617188 518.164062 152.734375 517.992188 153.078125 517.613281 C 152.027344 514.898438 151.382812 512.027344 150.722656 509.179688 C 150.265625 507.207031 150.078125 505.660156 149.964844 504.183594 C 147.765625 503.957031 145.566406 503.648438 143.398438 503.246094 C 140.839844 502.664062 138.5 501.628906 136.253906 500.386719 C 134.3125 500.179688 132.363281 499.96875 130.417969 499.796875 C 129.789062 499.601562 129.222656 499.4375 128.605469 499.253906 C 121.789062 499.410156 114.980469 499.429688 108.171875 499.113281 C 120.535156 517.503906 102.265625 528.472656 89.09375 510.90625 C 86.191406 527.390625 68.082031 526.320312 67.039062 507.070312 C 67.023438 507.03125 67.027344 506.976562 67.011719 506.941406 C 65.691406 508.246094 63.445312 507.335938 63.445312 504.1875 L 63.445312 503.839844 C 62.492188 503.515625 61.671875 502.347656 61.707031 500.402344 C 61.75 498.257812 61.722656 496.105469 61.707031 493.964844 C 61.691406 491.636719 61.675781 489.316406 61.667969 486.988281 C 61.660156 484.390625 61.660156 481.792969 61.65625 479.199219 C 61.652344 476.582031 61.65625 473.972656 61.65625 471.359375 C 61.59375 468.597656 61.699219 465.835938 61.863281 463.082031 C 62.097656 459.976562 62.492188 456.886719 62.878906 453.800781 C 63.21875 451.277344 63.785156 448.792969 64.269531 446.292969 C 64.644531 444.382812 65.691406 443.464844 66.691406 443.410156 C 67.972656 443.339844 69.164062 444.699219 68.6875 447.15625 C 68.582031 447.699219 68.476562 448.238281 68.363281 448.777344 C 70.261719 446.972656 72.433594 445.816406 74.699219 445.816406 C 78.789062 445.816406 82.878906 448.78125 84.804688 454.675781 C 85.175781 455.265625 85.574219 455.800781 85.886719 456.488281 C 87.585938 457.019531 89.265625 457.867188 90.804688 459.398438 C 91.574219 458.667969 92.34375 457.945312 93.316406 457.300781 C 94.179688 456.847656 95.023438 456.332031 95.914062 455.9375 C 100.863281 453.75 106.378906 453.460938 111.699219 453.375 C 117.777344 453.519531 123.867188 453.796875 129.945312 453.644531 C 135.257812 453.484375 140.574219 453.316406 145.855469 452.667969 C 149.78125 452.226562 153.65625 451.644531 157.507812 450.761719 C 164.789062 449.726562 172.1875 449.675781 179.304688 451.792969 C 181.203125 452.730469 183.394531 453.222656 184.996094 454.609375 C 188.984375 458.0625 190.230469 461.882812 190.648438 466.285156 C 194.582031 465.828125 198.519531 465.394531 202.464844 465.023438 C 207.496094 464.558594 211.550781 465.335938 214.566406 466.828125 C 215.09375 465.882812 215.679688 464.964844 216.410156 464.136719 C 218.394531 461.882812 222.054688 463.175781 225.320312 463.636719 C 226.683594 463.238281 228.042969 462.828125 229.4375 462.566406 C 235.800781 461.367188 242.296875 461.601562 248.722656 461.910156 C 250.867188 462.011719 253.019531 462.160156 255.160156 462.28125 L 261.6875 462.59375 C 271.167969 463.015625 280.632812 462.351562 290.101562 462.078125 C 290.945312 462.050781 292.21875 461.53125 293.117188 461.472656 C 293.652344 461.4375 294.046875 461.566406 294.144531 462.0625 C 294.296875 462.820312 294.394531 463.582031 294.492188 464.34375 C 296.398438 464.039062 298.304688 463.757812 300.210938 463.453125 C 311.464844 461.625 322.707031 459.730469 333.953125 457.855469 C 334.046875 455.660156 334.242188 453.472656 334.6875 451.328125 C 334.828125 450.648438 342.105469 448.433594 343.03125 448.136719 C 352.855469 445.6875 353.882812 444.613281 355.710938 453.773438 C 356.644531 453.808594 357.589844 453.808594 358.53125 453.839844 C 372.027344 451.660156 385.527344 449.550781 399.074219 447.699219 C 417.191406 445.21875 424.554688 444.46875 442.539062 442.40625 C 448.882812 441.738281 455.226562 441 461.582031 440.410156 C 472.570312 439.390625 482.164062 438.710938 493.136719 438.441406 Z M 107.246094 476.160156 C 107.15625 476.171875 107.066406 476.15625 106.976562 476.171875 C 106.964844 476.289062 106.957031 476.40625 106.949219 476.519531 C 107.070312 476.535156 107.152344 476.535156 107.21875 476.546875 C 107.226562 476.410156 107.234375 476.269531 107.246094 476.160156 Z M 104.632812 476.558594 C 104.308594 476.640625 104.035156 476.746094 104.21875 476.855469 C 104.316406 476.914062 104.433594 476.808594 104.542969 476.792969 C 104.617188 476.800781 104.6875 476.738281 104.761719 476.726562 C 104.734375 476.699219 104.644531 476.578125 104.632812 476.558594 Z M 709.777344 492.085938 C 709.730469 492.101562 709.675781 492.121094 709.636719 492.136719 C 709.480469 492.96875 709.277344 493.945312 708.875 494.761719 C 708.929688 494.753906 708.976562 494.757812 709.03125 494.761719 C 709.304688 494.777344 709.558594 494.859375 709.816406 494.957031 C 709.835938 494.207031 709.859375 493.460938 709.890625 492.714844 C 709.859375 492.5 709.808594 492.300781 709.777344 492.085938 Z M 499.625 501.328125 C 490.515625 501.984375 481.402344 502.582031 472.292969 503.234375 C 466.617188 503.519531 460.9375 503.921875 455.257812 504.277344 C 455.089844 511.351562 450.597656 518.238281 441.945312 522.285156 C 439.703125 532.535156 428.289062 541.636719 407.699219 540.976562 C 403.761719 540.851562 399.832031 540.738281 395.894531 540.617188 C 392.125 540.5 388.359375 540.398438 384.589844 540.347656 C 381.273438 540.289062 377.945312 540.269531 374.625 540.28125 C 372.464844 540.28125 370.296875 540.261719 368.136719 540.308594 L 368.136719 540.320312 C 357.09375 540.554688 348.746094 537.984375 342.980469 534 C 339.195312 534.207031 335.402344 534.457031 331.625 534.746094 C 333.914062 537.566406 335.84375 540.390625 337.070312 543.167969 C 337.09375 543.199219 337.179688 543.210938 337.199219 543.242188 C 376.839844 546.214844 416.527344 548.484375 456.222656 550.632812 C 482.839844 551.960938 485.9375 552.089844 502.613281 552.847656 C 503.550781 549.464844 504.660156 545.785156 505.625 542.714844 C 505.710938 542.453125 505.792969 542.191406 505.882812 541.929688 C 505.246094 540.824219 504.679688 539.5625 504.15625 537.941406 C 502.984375 534.308594 503.507812 528.804688 503.65625 525.066406 C 503.636719 523.296875 503.871094 521.535156 504.078125 519.773438 C 503.382812 518.617188 502.75 517.296875 502.265625 515.65625 C 501.597656 513.402344 502.617188 511.246094 503.988281 509.117188 C 503.933594 508.789062 503.878906 508.464844 503.820312 508.136719 C 503.867188 506.476562 503.796875 504.808594 503.964844 503.15625 C 504.003906 502.769531 504.113281 502.261719 504.167969 501.84375 C 502.664062 501.691406 500.945312 501.234375 499.625 501.328125 Z M 194.613281 555.921875 C 194.355469 555.992188 194.097656 556.0625 193.839844 556.128906 C 194 556.417969 194.148438 556.710938 194.316406 556.964844 C 194.566406 556.976562 194.757812 556.914062 195.023438 556.941406 C 195.6875 557.007812 196.355469 557.046875 197.019531 557.109375 C 196.257812 556.757812 195.367188 556.609375 194.742188 556.050781 C 194.695312 556.011719 194.65625 555.964844 194.613281 555.925781 Z M 359.574219 582.351562 C 361.671875 582.351562 363.773438 582.355469 365.871094 582.367188 C 370.0625 582.382812 374.257812 582.40625 378.449219 582.429688 C 386.519531 582.386719 394.585938 582.605469 402.652344 582.855469 C 407.105469 582.992188 406.964844 587.488281 402.511719 587.347656 C 394.484375 587.097656 386.457031 586.890625 378.421875 586.9375 C 370.089844 586.890625 361.765625 586.796875 353.433594 586.886719 C 345.773438 587.105469 338.109375 587.414062 330.453125 587.734375 C 321.363281 588.121094 312.277344 588.546875 303.183594 588.867188 C 298.730469 589.023438 298.359375 584.546875 302.8125 584.386719 C 311.964844 584.058594 321.109375 583.632812 330.257812 583.242188 C 337.9375 582.921875 345.609375 582.613281 353.292969 582.390625 C 355.386719 582.367188 357.476562 582.355469 359.574219 582.351562 Z M 359.574219 582.351562 " clip-rule="nonzero"/></clipPath></defs><g clip-path="url(#a58b3231bf)"><g clip-path="url(#f78d98a2a7)"><path fill="#000000" d="M 172.242188 103.011719 C 169.351562 100.515625 166.339844 98.171875 163.207031 95.980469 C 160.078125 93.789062 156.84375 91.761719 153.507812 89.898438 C 150.175781 88.035156 146.753906 86.347656 143.246094 84.828125 C 139.738281 83.3125 136.164062 81.976562 132.523438 80.820312 C 128.882812 79.664062 125.191406 78.695312 121.449219 77.914062 C 117.710938 77.132812 113.941406 76.539062 110.140625 76.140625 C 106.339844 75.738281 102.53125 75.53125 98.710938 75.519531 C 94.890625 75.503906 91.078125 75.679688 87.273438 76.050781 C 179.558594 151.324219 70.269531 248.542969 9.558594 135.371094 C -15.359375 191.332031 10.613281 242.875 62.292969 269.371094 C 86.683594 281.894531 99.535156 289.144531 108.433594 299.230469 C 113.480469 305.035156 117.566406 311.449219 120.695312 318.476562 L 143.703125 372.917969 L 46.867188 372.917969 C 45.859375 372.921875 44.863281 373.023438 43.878906 373.226562 C 42.890625 373.425781 41.933594 373.722656 41.003906 374.113281 C 40.078125 374.503906 39.195312 374.980469 38.363281 375.546875 C 37.527344 376.109375 36.757812 376.75 36.050781 377.464844 C 35.34375 378.183594 34.710938 378.960938 34.160156 379.804688 C 33.605469 380.644531 33.140625 381.53125 32.761719 382.464844 C 32.382812 383.398438 32.097656 384.359375 31.910156 385.347656 C 31.722656 386.335938 31.632812 387.335938 31.640625 388.339844 L 31.640625 657.917969 C 31.644531 659.730469 31.695312 661.542969 31.789062 663.355469 C 31.882812 665.164062 32.023438 666.972656 32.203125 668.777344 C 32.386719 670.578125 32.613281 672.378906 32.882812 674.171875 C 33.152344 675.960938 33.46875 677.746094 33.824219 679.523438 C 34.183594 681.300781 34.582031 683.070312 35.027344 684.828125 C 35.472656 686.585938 35.957031 688.332031 36.488281 690.066406 C 37.019531 691.796875 37.589844 693.519531 38.203125 695.222656 C 38.816406 696.929688 39.472656 698.621094 40.167969 700.292969 C 40.863281 701.96875 41.601562 703.625 42.378906 705.261719 C 43.15625 706.898438 43.972656 708.515625 44.828125 710.113281 C 45.6875 711.714844 46.582031 713.289062 47.515625 714.84375 C 48.449219 716.398438 49.417969 717.925781 50.425781 719.433594 C 51.433594 720.941406 52.480469 722.421875 53.5625 723.878906 C 54.640625 725.332031 55.757812 726.761719 56.910156 728.160156 C 58.058594 729.5625 59.242188 730.933594 60.460938 732.277344 C 61.679688 733.621094 62.929688 734.933594 64.210938 736.214844 C 65.492188 737.496094 66.804688 738.746094 68.148438 739.964844 C 69.492188 741.183594 70.863281 742.367188 72.265625 743.515625 C 73.667969 744.667969 75.09375 745.785156 76.550781 746.863281 C 78.007812 747.945312 79.488281 748.988281 80.992188 749.996094 C 82.5 751.007812 84.03125 751.976562 85.585938 752.910156 C 87.140625 753.84375 88.714844 754.738281 90.3125 755.59375 C 91.910156 756.453125 93.53125 757.269531 95.167969 758.046875 C 96.804688 758.824219 98.460938 759.558594 100.136719 760.257812 C 101.808594 760.953125 103.5 761.605469 105.207031 762.222656 C 106.914062 762.835938 108.632812 763.40625 110.367188 763.933594 C 112.101562 764.464844 113.847656 764.953125 115.605469 765.394531 C 117.363281 765.839844 119.128906 766.242188 120.90625 766.597656 C 122.683594 766.957031 124.46875 767.269531 126.261719 767.539062 C 128.054688 767.808594 129.851562 768.035156 131.65625 768.21875 C 133.460938 768.402344 135.269531 768.539062 137.078125 768.632812 C 138.890625 768.726562 140.703125 768.777344 142.515625 768.78125 L 638.019531 768.78125 C 639.832031 768.777344 641.644531 768.726562 643.457031 768.632812 C 645.265625 768.539062 647.074219 768.402344 648.878906 768.21875 C 650.679688 768.035156 652.480469 767.808594 654.273438 767.539062 C 656.066406 767.269531 657.851562 766.957031 659.628906 766.597656 C 661.40625 766.242188 663.171875 765.839844 664.929688 765.394531 C 666.6875 764.953125 668.433594 764.464844 670.167969 763.933594 C 671.902344 763.40625 673.621094 762.835938 675.328125 762.222656 C 677.035156 761.605469 678.722656 760.953125 680.398438 760.257812 C 682.074219 759.558594 683.730469 758.824219 685.367188 758.046875 C 687.003906 757.269531 688.621094 756.453125 690.222656 755.59375 C 691.820312 754.738281 693.394531 753.84375 694.949219 752.910156 C 696.503906 751.976562 698.035156 751.007812 699.539062 749.996094 C 701.046875 748.988281 702.527344 747.945312 703.984375 746.863281 C 705.441406 745.785156 706.867188 744.667969 708.269531 743.515625 C 709.671875 742.367188 711.042969 741.183594 712.386719 739.964844 C 713.730469 738.746094 715.042969 737.496094 716.324219 736.214844 C 717.605469 734.933594 718.855469 733.621094 720.074219 732.277344 C 721.292969 730.933594 722.476562 729.5625 723.625 728.160156 C 724.777344 726.761719 725.894531 725.332031 726.972656 723.878906 C 728.054688 722.421875 729.097656 720.941406 730.109375 719.433594 C 731.117188 717.925781 732.085938 716.398438 733.019531 714.84375 C 733.953125 713.289062 734.847656 711.714844 735.707031 710.113281 C 736.5625 708.515625 737.378906 706.898438 738.15625 705.261719 C 738.933594 703.625 739.671875 701.96875 740.367188 700.292969 C 741.0625 698.621094 741.71875 696.929688 742.332031 695.222656 C 742.945312 693.519531 743.515625 691.796875 744.046875 690.066406 C 744.574219 688.332031 745.0625 686.585938 745.507812 684.828125 C 745.949219 683.070312 746.351562 681.300781 746.710938 679.523438 C 747.066406 677.746094 747.382812 675.960938 747.652344 674.171875 C 747.921875 672.378906 748.148438 670.578125 748.332031 668.777344 C 748.511719 666.972656 748.652344 665.164062 748.746094 663.355469 C 748.839844 661.542969 748.886719 659.730469 748.894531 657.917969 L 748.894531 388.339844 C 748.894531 387.335938 748.796875 386.34375 748.601562 385.359375 C 748.402344 384.371094 748.113281 383.417969 747.730469 382.488281 C 747.34375 381.5625 746.875 380.679688 746.316406 379.84375 C 745.757812 379.011719 745.125 378.238281 744.414062 377.527344 C 743.703125 376.816406 742.933594 376.183594 742.097656 375.625 C 741.261719 375.070312 740.382812 374.597656 739.453125 374.214844 C 738.527344 373.828125 737.570312 373.539062 736.585938 373.34375 C 735.601562 373.148438 734.605469 373.050781 733.601562 373.050781 L 585.945312 373.050781 L 672.097656 228.042969 L 610.335938 192.453125 L 502.359375 373.050781 L 433.675781 373.050781 L 433.675781 354.199219 C 433.675781 353.339844 433.410156 352.570312 432.882812 351.890625 C 429.585938 347.9375 427.082031 345.300781 424.972656 342.597656 C 420.09375 336.929688 417.589844 334.097656 417.589844 332.25 C 417.589844 330.40625 419.964844 327.308594 424.773438 321.375 C 426.753906 318.9375 429.125 316.035156 431.894531 312.410156 C 432.460938 311.722656 432.746094 310.929688 432.75 310.039062 L 432.75 289.144531 C 432.75 288.664062 432.660156 288.199219 432.476562 287.757812 C 432.292969 287.3125 432.03125 286.921875 431.691406 286.582031 C 431.347656 286.242188 430.957031 285.980469 430.511719 285.796875 C 430.070312 285.609375 429.605469 285.519531 429.125 285.519531 L 397.15625 285.519531 L 397.75 139.921875 L 416.996094 106.238281 C 417.984375 104.71875 418.738281 103.089844 419.253906 101.351562 C 419.769531 99.613281 420.027344 97.835938 420.027344 96.023438 L 420.027344 63.066406 C 420.011719 62.457031 419.964844 61.851562 419.890625 61.246094 C 419.8125 60.640625 419.707031 60.039062 419.570312 59.445312 C 419.433594 58.851562 419.269531 58.265625 419.078125 57.6875 C 418.886719 57.109375 418.664062 56.539062 418.414062 55.984375 C 418.167969 55.425781 417.890625 54.882812 417.589844 54.355469 C 417.289062 53.824219 416.960938 53.308594 416.609375 52.8125 C 416.257812 52.316406 415.878906 51.835938 415.480469 51.375 C 415.082031 50.914062 414.660156 50.472656 414.21875 50.054688 C 413.777344 49.632812 413.3125 49.238281 412.832031 48.863281 C 412.351562 48.488281 411.851562 48.140625 411.335938 47.8125 C 410.820312 47.488281 410.289062 47.1875 409.746094 46.914062 C 409.199219 46.640625 408.640625 46.394531 408.074219 46.175781 C 407.503906 45.957031 406.925781 45.769531 406.335938 45.605469 C 405.75 45.445312 405.15625 45.3125 404.554688 45.207031 C 403.953125 45.105469 403.347656 45.03125 402.738281 44.984375 C 402.132812 44.941406 401.523438 44.925781 400.914062 44.941406 L 355.957031 44.941406 C 355.347656 44.949219 354.738281 44.988281 354.128906 45.058594 C 353.523438 45.125 352.921875 45.222656 352.324219 45.351562 C 351.726562 45.480469 351.136719 45.636719 350.554688 45.820312 C 349.972656 46.007812 349.398438 46.21875 348.839844 46.460938 C 348.277344 46.703125 347.730469 46.972656 347.195312 47.269531 C 346.660156 47.5625 346.140625 47.882812 345.636719 48.230469 C 345.132812 48.578125 344.648438 48.949219 344.183594 49.34375 C 343.714844 49.738281 343.269531 50.152344 342.84375 50.589844 C 342.417969 51.027344 342.011719 51.488281 341.632812 51.964844 C 341.25 52.441406 340.894531 52.9375 340.5625 53.449219 C 340.230469 53.964844 339.925781 54.492188 339.644531 55.035156 C 339.363281 55.578125 339.109375 56.132812 338.882812 56.699219 C 338.660156 57.269531 338.460938 57.84375 338.292969 58.433594 C 338.125 59.019531 337.984375 59.613281 337.871094 60.214844 C 337.761719 60.816406 337.679688 61.421875 337.628906 62.027344 C 337.578125 62.636719 337.558594 63.246094 337.566406 63.859375 L 338.09375 100.375 C 338.113281 102.253906 338.417969 104.089844 339.003906 105.875 C 339.585938 107.664062 340.425781 109.324219 341.519531 110.851562 L 359.515625 136.625 L 358.921875 285.78125 L 321.085938 285.78125 C 320.601562 285.78125 320.132812 285.875 319.683594 286.066406 C 319.234375 286.253906 318.839844 286.519531 318.5 286.867188 C 318.160156 287.214844 317.898438 287.613281 317.71875 288.066406 C 317.539062 288.519531 317.453125 288.988281 317.460938 289.472656 L 317.460938 309.90625 C 317.464844 310.816406 317.773438 311.605469 318.382812 312.277344 C 321.480469 315.707031 324.117188 318.871094 326.425781 320.980469 C 333.015625 328.03125 336.179688 331.460938 336.246094 334.160156 C 336.3125 336.863281 333.542969 339.832031 328.402344 346.355469 C 325.832031 349.585938 322.667969 353.605469 318.910156 358.613281 C 318.339844 359.277344 318.078125 360.046875 318.121094 360.921875 L 318.121094 373.179688 L 231.964844 373.179688 L 195.710938 288.089844 C 191.976562 280.140625 189.535156 271.816406 188.394531 263.109375 C 187.90625 254.789062 188.523438 246.550781 190.238281 238.390625 C 199.007812 187.113281 216.605469 144.46875 172.242188 103.140625 Z M 62.160156 466.378906 L 718.503906 466.378906 L 718.503906 403.566406 L 62.160156 403.566406 Z M 718.503906 496.898438 L 627.078125 496.898438 L 627.078125 548.242188 C 627.078125 548.921875 627.042969 549.597656 626.980469 550.273438 C 626.914062 550.949219 626.8125 551.621094 626.683594 552.285156 C 626.550781 552.953125 626.386719 553.609375 626.191406 554.261719 C 625.996094 554.910156 625.769531 555.550781 625.511719 556.179688 C 625.253906 556.804688 624.96875 557.417969 624.648438 558.019531 C 624.332031 558.621094 623.984375 559.203125 623.609375 559.769531 C 623.238281 560.335938 622.835938 560.882812 622.40625 561.410156 C 621.980469 561.9375 621.527344 562.441406 621.050781 562.925781 C 620.574219 563.40625 620.074219 563.867188 619.550781 564.300781 C 619.03125 564.734375 618.488281 565.144531 617.929688 565.523438 C 617.367188 565.90625 616.789062 566.257812 616.191406 566.585938 C 615.597656 566.910156 614.984375 567.207031 614.359375 567.472656 C 613.734375 567.738281 613.101562 567.972656 612.453125 568.175781 C 611.804688 568.378906 611.148438 568.550781 610.484375 568.691406 C 609.820312 568.832031 609.152344 568.9375 608.476562 569.011719 C 607.800781 569.085938 607.125 569.128906 606.445312 569.136719 L 533.011719 569.136719 C 532.328125 569.132812 531.648438 569.097656 530.964844 569.03125 C 530.285156 568.960938 529.609375 568.859375 528.941406 568.722656 C 528.269531 568.589844 527.609375 568.421875 526.953125 568.222656 C 526.300781 568.023438 525.65625 567.792969 525.027344 567.527344 C 524.394531 567.265625 523.777344 566.972656 523.175781 566.648438 C 522.574219 566.328125 521.988281 565.976562 521.417969 565.59375 C 520.851562 565.214844 520.300781 564.808594 519.773438 564.375 C 519.246094 563.941406 518.738281 563.480469 518.257812 562.996094 C 517.773438 562.515625 517.3125 562.007812 516.878906 561.480469 C 516.445312 560.953125 516.039062 560.402344 515.660156 559.835938 C 515.277344 559.265625 514.925781 558.679688 514.601562 558.078125 C 514.28125 557.476562 513.988281 556.859375 513.726562 556.226562 C 513.460938 555.597656 513.230469 554.953125 513.03125 554.300781 C 512.832031 553.644531 512.664062 552.984375 512.527344 552.3125 C 512.394531 551.644531 512.292969 550.96875 512.222656 550.289062 C 512.15625 549.609375 512.117188 548.925781 512.117188 548.242188 L 512.117188 496.898438 L 275.667969 496.898438 L 275.667969 548.242188 C 275.667969 548.925781 275.632812 549.609375 275.5625 550.289062 C 275.492188 550.96875 275.390625 551.644531 275.257812 552.3125 C 275.121094 552.984375 274.953125 553.644531 274.753906 554.300781 C 274.554688 554.953125 274.324219 555.597656 274.0625 556.226562 C 273.796875 556.859375 273.503906 557.476562 273.183594 558.078125 C 272.859375 558.679688 272.507812 559.265625 272.128906 559.835938 C 271.746094 560.402344 271.339844 560.953125 270.90625 561.480469 C 270.472656 562.007812 270.011719 562.515625 269.53125 562.996094 C 269.046875 563.480469 268.539062 563.941406 268.011719 564.375 C 267.484375 564.808594 266.933594 565.214844 266.367188 565.59375 C 265.796875 565.976562 265.214844 566.328125 264.609375 566.648438 C 264.007812 566.972656 263.390625 567.265625 262.757812 567.527344 C 262.128906 567.792969 261.484375 568.023438 260.832031 568.222656 C 260.175781 568.421875 259.515625 568.589844 258.84375 568.722656 C 258.175781 568.859375 257.5 568.960938 256.820312 569.03125 C 256.140625 569.097656 255.457031 569.132812 254.773438 569.136719 L 181.605469 569.136719 C 180.917969 569.136719 180.234375 569.101562 179.554688 569.035156 C 178.871094 568.96875 178.195312 568.867188 177.523438 568.734375 C 176.851562 568.601562 176.1875 568.4375 175.53125 568.238281 C 174.875 568.039062 174.230469 567.808594 173.597656 567.546875 C 172.964844 567.285156 172.34375 566.992188 171.742188 566.671875 C 171.136719 566.347656 170.546875 565.996094 169.980469 565.617188 C 169.410156 565.238281 168.859375 564.832031 168.328125 564.398438 C 167.796875 563.964844 167.289062 563.503906 166.804688 563.019531 C 166.320312 562.535156 165.859375 562.03125 165.421875 561.503906 C 164.988281 560.972656 164.578125 560.425781 164.199219 559.855469 C 163.816406 559.285156 163.460938 558.699219 163.136719 558.097656 C 162.8125 557.492188 162.519531 556.875 162.257812 556.242188 C 161.992188 555.609375 161.761719 554.96875 161.558594 554.3125 C 161.359375 553.65625 161.191406 552.992188 161.054688 552.324219 C 160.921875 551.652344 160.816406 550.972656 160.75 550.292969 C 160.679688 549.609375 160.644531 548.925781 160.640625 548.242188 L 160.640625 496.898438 L 62.160156 496.898438 L 62.160156 657.917969 C 62.164062 659.234375 62.203125 660.546875 62.269531 661.859375 C 62.339844 663.171875 62.4375 664.480469 62.570312 665.789062 C 62.703125 667.097656 62.867188 668.398438 63.0625 669.699219 C 63.261719 671 63.488281 672.292969 63.746094 673.582031 C 64.007812 674.867188 64.296875 676.148438 64.621094 677.425781 C 64.941406 678.699219 65.292969 679.964844 65.679688 681.21875 C 66.0625 682.476562 66.476562 683.722656 66.921875 684.960938 C 67.367188 686.199219 67.839844 687.421875 68.347656 688.636719 C 68.851562 689.847656 69.382812 691.050781 69.949219 692.238281 C 70.511719 693.425781 71.101562 694.597656 71.722656 695.753906 C 72.34375 696.914062 72.992188 698.054688 73.667969 699.183594 C 74.347656 700.308594 75.050781 701.417969 75.78125 702.511719 C 76.511719 703.605469 77.269531 704.675781 78.050781 705.734375 C 78.835938 706.789062 79.644531 707.824219 80.476562 708.839844 C 81.3125 709.855469 82.167969 710.851562 83.050781 711.824219 C 83.933594 712.796875 84.839844 713.75 85.769531 714.679688 C 86.699219 715.609375 87.648438 716.515625 88.621094 717.398438 C 89.59375 718.28125 90.589844 719.140625 91.605469 719.976562 C 92.621094 720.808594 93.65625 721.617188 94.710938 722.402344 C 95.765625 723.1875 96.835938 723.945312 97.929688 724.675781 C 99.019531 725.40625 100.128906 726.113281 101.257812 726.789062 C 102.382812 727.46875 103.523438 728.117188 104.683594 728.738281 C 105.839844 729.359375 107.011719 729.953125 108.199219 730.515625 C 109.386719 731.082031 110.585938 731.617188 111.800781 732.121094 C 113.011719 732.628906 114.238281 733.101562 115.472656 733.546875 C 116.710938 733.996094 117.957031 734.410156 119.214844 734.792969 C 120.46875 735.179688 121.734375 735.535156 123.011719 735.855469 C 124.285156 736.179688 125.566406 736.472656 126.851562 736.730469 C 128.140625 736.992188 129.433594 737.222656 130.734375 737.417969 C 132.035156 737.617188 133.335938 737.78125 134.644531 737.914062 C 135.953125 738.046875 137.261719 738.148438 138.574219 738.21875 C 139.886719 738.289062 141.199219 738.324219 142.515625 738.332031 L 638.019531 738.332031 C 639.335938 738.328125 640.648438 738.292969 641.964844 738.226562 C 643.277344 738.15625 644.589844 738.058594 645.898438 737.925781 C 647.207031 737.792969 648.511719 737.632812 649.8125 737.4375 C 651.113281 737.238281 652.410156 737.011719 653.699219 736.753906 C 654.988281 736.496094 656.273438 736.203125 657.546875 735.882812 C 658.824219 735.5625 660.089844 735.210938 661.351562 734.824219 C 662.609375 734.441406 663.855469 734.027344 665.09375 733.582031 C 666.332031 733.136719 667.558594 732.664062 668.773438 732.160156 C 669.988281 731.65625 671.191406 731.121094 672.378906 730.558594 C 673.570312 729.992188 674.742188 729.402344 675.902344 728.78125 C 677.0625 728.160156 678.207031 727.511719 679.335938 726.832031 C 680.464844 726.15625 681.574219 725.453125 682.667969 724.722656 C 683.761719 723.992188 684.835938 723.234375 685.894531 722.449219 C 686.949219 721.664062 687.988281 720.855469 689.003906 720.023438 C 690.019531 719.1875 691.015625 718.328125 691.992188 717.445312 C 692.96875 716.5625 693.921875 715.65625 694.851562 714.726562 C 695.78125 713.796875 696.6875 712.84375 697.574219 711.871094 C 698.457031 710.894531 699.316406 709.898438 700.152344 708.882812 C 700.988281 707.867188 701.796875 706.832031 702.582031 705.777344 C 703.367188 704.71875 704.125 703.644531 704.859375 702.550781 C 705.589844 701.460938 706.296875 700.347656 706.972656 699.222656 C 707.652344 698.09375 708.300781 696.949219 708.921875 695.792969 C 709.542969 694.632812 710.136719 693.457031 710.703125 692.269531 C 711.265625 691.082031 711.800781 689.878906 712.308594 688.667969 C 712.8125 687.453125 713.289062 686.226562 713.734375 684.988281 C 714.179688 683.75 714.597656 682.503906 714.980469 681.246094 C 715.363281 679.984375 715.71875 678.71875 716.042969 677.445312 C 716.363281 676.167969 716.65625 674.886719 716.914062 673.597656 C 717.175781 672.308594 717.402344 671.011719 717.601562 669.710938 C 717.796875 668.410156 717.960938 667.105469 718.09375 665.796875 C 718.226562 664.488281 718.328125 663.175781 718.398438 661.863281 C 718.464844 660.550781 718.5 659.234375 718.503906 657.917969 Z M 496.296875 169.054688 C 501.539062 165.160156 507.09375 161.789062 512.96875 158.941406 C 518.84375 156.09375 524.929688 153.816406 531.234375 152.113281 C 535.523438 150.816406 539.898438 149.957031 544.363281 149.542969 C 548.824219 149.125 553.285156 149.15625 557.742188 149.640625 C 562.199219 150.121094 566.5625 151.039062 570.832031 152.402344 C 575.105469 153.761719 579.195312 155.53125 583.109375 157.714844 L 717.449219 235.164062 L 709.34375 249.269531 L 760.429688 278.992188 L 810 193.308594 L 758.980469 163.582031 L 749.75 179.136719 L 616.199219 102.152344 C 614.277344 100.90625 612.292969 99.757812 610.253906 98.710938 C 608.214844 97.660156 606.125 96.71875 603.988281 95.882812 C 601.855469 95.046875 599.679688 94.320312 597.472656 93.707031 C 595.261719 93.089844 593.027344 92.585938 590.765625 92.195312 C 588.507812 91.808594 586.234375 91.53125 583.945312 91.371094 C 581.65625 91.214844 579.367188 91.167969 577.074219 91.242188 C 574.78125 91.3125 572.496094 91.5 570.222656 91.804688 C 567.949219 92.109375 565.699219 92.527344 563.464844 93.058594 C 535.519531 100.570312 513.039062 126.011719 496.03125 169.054688 Z M 496.296875 169.054688 " fill-opacity="1" fill-rule="evenodd"/></g></g><path fill="#000000" d="M 102.703125 431.390625 C 106.117188 431.390625 108.917969 434.15625 108.917969 437.527344 C 108.917969 440.898438 106.117188 443.660156 102.703125 443.660156 L 60.828125 443.660156 C 57.414062 443.660156 54.613281 440.898438 54.613281 437.527344 C 54.613281 434.15625 57.414062 431.390625 60.828125 431.390625 Z M 269.277344 546.640625 L 236.828125 546.640625 L 236.828125 555 C 236.828125 555.203125 236.828125 555.40625 236.828125 555.609375 C 236.695312 559.046875 235.191406 562.148438 232.867188 564.4375 C 230.410156 566.867188 227.027344 568.382812 223.304688 568.347656 L 195.367188 568.347656 C 195.160156 568.347656 194.957031 568.347656 194.75 568.347656 C 191.265625 568.214844 188.125 566.730469 185.800781 564.4375 C 183.34375 562.011719 181.839844 558.707031 181.839844 555 L 181.839844 546.640625 L 52.050781 546.640625 C 51.84375 546.640625 51.640625 546.640625 51.46875 546.609375 C 47.574219 546.472656 44.023438 544.855469 41.429688 542.292969 C 38.695312 539.597656 37.023438 535.921875 37.023438 531.808594 L 37.023438 417.199219 C 37.023438 413.089844 38.695312 409.414062 41.429688 406.71875 C 44.160156 404.019531 47.882812 402.367188 52.050781 402.367188 L 181.839844 402.367188 L 181.839844 398.324219 C 181.839844 394.617188 183.378906 391.277344 185.800781 388.886719 C 188.261719 386.457031 191.644531 384.941406 195.367188 384.976562 L 223.304688 384.976562 C 223.507812 384.976562 223.714844 384.976562 223.917969 384.976562 C 227.402344 385.109375 230.546875 386.59375 232.867188 388.886719 C 235.328125 391.3125 236.828125 394.617188 236.828125 398.324219 L 236.828125 402.367188 L 272.28125 402.367188 C 272.964844 401.628906 273.648438 400.886719 274.367188 400.175781 C 283.894531 390.773438 297.011719 384.976562 311.460938 384.941406 L 471.75 384.90625 C 486.230469 384.90625 499.3125 390.738281 508.84375 400.144531 C 509.558594 400.851562 510.242188 401.59375 510.925781 402.335938 L 732.730469 402.335938 C 736.863281 402.300781 740.621094 403.988281 743.351562 406.683594 C 746.050781 409.347656 747.757812 413.054688 747.757812 417.167969 L 747.757812 531.777344 C 747.757812 531.976562 747.757812 532.179688 747.757812 532.382812 C 747.585938 536.257812 745.914062 539.730469 743.351562 542.257812 C 740.621094 544.957031 736.898438 546.605469 732.730469 546.605469 L 513.929688 546.605469 C 512.394531 548.664062 510.6875 550.617188 508.84375 552.4375 C 499.3125 561.84375 486.195312 567.640625 471.75 567.675781 L 311.460938 567.640625 C 296.976562 567.640625 283.894531 561.808594 274.367188 552.40625 C 272.554688 550.617188 270.8125 548.695312 269.277344 546.640625 Z M 236.828125 534.371094 L 262.445312 534.371094 C 260.226562 528.605469 258.960938 522.371094 258.960938 515.832031 L 258.960938 436.75 C 258.960938 428.796875 260.808594 421.3125 264.019531 414.570312 L 236.828125 414.570312 L 236.828125 431.359375 L 251.175781 431.359375 C 254.589844 431.359375 257.355469 434.089844 257.390625 437.492188 C 257.390625 440.863281 254.589844 443.628906 251.175781 443.628906 L 236.828125 443.628906 L 236.828125 509.898438 L 249.195312 509.898438 C 252.609375 509.898438 255.410156 512.664062 255.410156 516.035156 C 255.410156 519.40625 252.609375 522.167969 249.195312 522.167969 L 236.828125 522.167969 Z M 194.171875 407.726562 C 194.203125 407.964844 194.238281 408.199219 194.203125 408.4375 C 194.203125 408.707031 194.203125 408.910156 194.171875 409.144531 L 194.171875 555.035156 C 194.171875 555.304688 194.339844 555.609375 194.546875 555.808594 C 194.714844 555.976562 194.921875 556.113281 195.160156 556.148438 L 223.234375 556.148438 C 223.507812 556.148438 223.851562 556.011719 224.054688 555.808594 C 224.226562 555.640625 224.363281 555.4375 224.398438 555.203125 L 224.398438 398.324219 C 224.398438 398.054688 224.226562 397.75 224.023438 397.546875 C 223.851562 397.378906 223.644531 397.246094 223.40625 397.210938 L 195.332031 397.210938 C 195.058594 397.210938 194.71875 397.347656 194.511719 397.546875 C 194.308594 397.75 194.171875 398.019531 194.171875 398.359375 Z M 181.773438 414.570312 L 51.980469 414.570312 C 51.300781 414.570312 50.617188 414.839844 50.136719 415.3125 C 49.660156 415.785156 49.351562 416.425781 49.386719 417.132812 L 49.386719 531.742188 C 49.386719 532.417969 49.660156 533.089844 50.136719 533.5625 C 50.582031 534 51.128906 534.269531 51.742188 534.335938 L 181.738281 534.335938 L 181.738281 521.191406 C 180.78125 521.796875 179.621094 522.136719 178.390625 522.136719 L 136.515625 522.136719 C 133.101562 522.136719 130.300781 519.371094 130.300781 516 C 130.300781 512.628906 133.101562 509.863281 136.515625 509.863281 L 178.390625 509.863281 C 179.621094 509.863281 180.78125 510.203125 181.738281 510.808594 L 181.738281 442.652344 C 180.78125 443.257812 179.621094 443.59375 178.390625 443.59375 L 136.515625 443.59375 C 133.101562 443.59375 130.300781 440.832031 130.300781 437.460938 C 130.300781 434.089844 133.101562 431.324219 136.515625 431.324219 L 178.390625 431.324219 C 179.621094 431.324219 180.78125 431.660156 181.738281 432.269531 Z M 281.0625 411.03125 C 280.652344 411.910156 280.003906 412.683594 279.214844 413.324219 C 274.265625 419.898438 271.359375 428.019531 271.359375 436.785156 L 271.359375 515.867188 C 271.359375 526.71875 275.871094 536.628906 283.144531 543.808594 C 290.417969 550.988281 300.460938 555.4375 311.460938 555.4375 L 471.75 555.40625 C 482.746094 555.40625 492.789062 550.957031 500.0625 543.777344 C 507.339844 536.597656 511.847656 526.6875 511.847656 515.832031 L 511.847656 495.808594 L 486.777344 495.808594 L 486.777344 508.550781 C 486.777344 514.617188 484.25 520.144531 480.1875 524.15625 C 476.121094 528.167969 470.554688 530.628906 464.371094 530.664062 L 315.113281 530.664062 C 308.964844 530.664062 303.363281 528.167969 299.300781 524.15625 C 295.234375 520.144531 292.742188 514.652344 292.707031 508.550781 L 292.777344 440.390625 C 292.777344 434.324219 295.304688 428.796875 299.367188 424.785156 C 303.433594 420.773438 309 418.3125 315.183594 418.28125 L 464.371094 418.28125 C 470.519531 418.28125 476.121094 420.773438 480.1875 424.785156 C 484.25 428.796875 486.742188 434.289062 486.777344 440.390625 L 486.777344 453.132812 L 511.847656 453.132812 L 511.847656 436.75 C 511.847656 425.898438 507.339844 415.988281 500.0625 408.808594 C 492.789062 401.628906 482.746094 397.179688 471.75 397.179688 L 311.492188 397.179688 C 300.496094 397.179688 290.453125 401.628906 283.179688 408.808594 C 282.425781 409.480469 281.710938 410.257812 281.0625 411.03125 Z M 520.796875 534.371094 L 732.695312 534.371094 C 733.378906 534.371094 734.0625 534.101562 734.539062 533.628906 C 734.984375 533.191406 735.257812 532.652344 735.324219 532.046875 L 735.324219 417.167969 C 735.324219 416.492188 735.019531 415.851562 734.539062 415.378906 C 734.0625 414.910156 733.414062 414.605469 732.695312 414.640625 L 519.15625 414.640625 C 521.71875 419.929688 523.390625 425.761719 524.007812 431.832031 C 524.65625 431.59375 525.40625 431.460938 526.160156 431.460938 L 568.03125 431.460938 C 571.449219 431.460938 574.25 434.222656 574.25 437.59375 C 574.25 440.964844 571.449219 443.730469 568.03125 443.730469 L 526.160156 443.730469 C 525.476562 443.730469 524.894531 443.628906 524.28125 443.425781 L 524.28125 453.203125 L 527.628906 453.203125 C 527.832031 453.203125 527.96875 453.203125 528.140625 453.234375 C 533.878906 453.371094 539.105469 455.761719 542.894531 459.503906 C 546.789062 463.347656 549.214844 468.707031 549.214844 474.574219 C 549.214844 480.4375 546.789062 485.796875 542.859375 489.671875 C 538.933594 493.550781 533.503906 495.945312 527.558594 495.945312 L 524.210938 495.945312 L 524.210938 510.304688 C 524.792969 510.136719 525.441406 510.035156 526.089844 510 L 567.964844 510 C 571.378906 510 574.179688 512.765625 574.179688 516.136719 C 574.179688 519.503906 571.378906 522.269531 567.964844 522.269531 L 526.089844 522.269531 C 525.269531 522.269531 524.554688 522.101562 523.835938 521.867188 C 523.390625 526.144531 522.332031 530.359375 520.796875 534.371094 Z M 474.34375 453.132812 L 474.34375 440.390625 C 474.34375 437.695312 473.21875 435.234375 471.40625 433.449219 C 469.597656 431.660156 467.105469 430.550781 464.371094 430.550781 L 315.113281 430.550781 C 312.382812 430.550781 309.886719 431.660156 308.078125 433.449219 C 306.269531 435.234375 305.140625 437.695312 305.140625 440.390625 L 305.140625 508.617188 C 305.140625 511.316406 306.269531 513.777344 308.078125 515.5625 C 309.886719 517.347656 312.382812 518.460938 315.113281 518.460938 L 464.371094 518.394531 C 467.105469 518.394531 469.597656 517.28125 471.40625 515.496094 C 473.21875 513.707031 474.34375 511.246094 474.34375 508.550781 L 474.34375 495.808594 L 460 495.808594 C 454.058594 495.808594 448.625 493.414062 444.699219 489.539062 C 440.769531 485.664062 438.347656 480.300781 438.347656 474.4375 C 438.347656 468.570312 440.769531 463.210938 444.699219 459.335938 C 448.625 455.460938 454.058594 453.066406 460 453.066406 Z M 481.277344 483.574219 L 527.59375 483.574219 C 530.121094 483.574219 532.445312 482.5625 534.117188 480.910156 C 535.789062 479.257812 536.816406 476.964844 536.816406 474.472656 C 536.816406 471.976562 535.757812 469.71875 534.082031 468.066406 C 532.476562 466.480469 530.292969 465.472656 527.933594 465.371094 C 527.796875 465.371094 527.695312 465.402344 527.59375 465.371094 L 459.964844 465.371094 C 457.4375 465.371094 455.117188 466.382812 453.441406 468.03125 C 451.769531 469.683594 450.742188 471.976562 450.742188 474.472656 C 450.742188 476.964844 451.769531 479.257812 453.441406 480.910156 C 455.117188 482.5625 457.4375 483.574219 459.964844 483.574219 Z M 719.476562 509.933594 C 722.894531 509.933594 725.695312 512.695312 725.695312 516.066406 C 725.695312 519.4375 722.894531 522.203125 719.476562 522.203125 L 677.601562 522.203125 C 674.1875 522.203125 671.386719 519.4375 671.386719 516.066406 C 671.386719 512.695312 674.1875 509.933594 677.601562 509.933594 Z M 643.753906 509.898438 C 647.171875 509.898438 649.972656 512.664062 649.972656 516.035156 C 649.972656 519.40625 647.171875 522.167969 643.753906 522.167969 L 601.882812 522.167969 C 598.464844 522.167969 595.664062 519.40625 595.664062 516.035156 C 595.664062 512.664062 598.464844 509.898438 601.882812 509.898438 Z M 719.476562 431.390625 C 722.894531 431.390625 725.695312 434.15625 725.695312 437.527344 C 725.695312 440.898438 722.894531 443.660156 719.476562 443.660156 L 677.601562 443.660156 C 674.1875 443.660156 671.386719 440.898438 671.386719 437.527344 C 671.386719 434.15625 674.1875 431.390625 677.601562 431.390625 Z M 643.789062 431.390625 C 647.203125 431.390625 650.003906 434.15625 650.003906 437.527344 C 650.003906 440.898438 647.203125 443.660156 643.789062 443.660156 L 601.914062 443.660156 C 598.5 443.660156 595.699219 440.898438 595.699219 437.527344 C 595.699219 434.15625 598.5 431.390625 601.914062 431.390625 Z M 102.703125 509.933594 C 106.117188 509.933594 108.917969 512.695312 108.917969 516.066406 C 108.917969 519.4375 106.117188 522.203125 102.703125 522.203125 L 60.828125 522.203125 C 57.414062 522.203125 54.613281 519.4375 54.613281 516.066406 C 54.613281 512.695312 57.414062 509.933594 60.828125 509.933594 Z M 102.703125 509.933594 " fill-opacity="1" fill-rule="nonzero"/><g fill="#000000" fill-opacity="1"><g transform="translate(335.225484, 674.967967)"><g><path d="M 40.078125 -58.78125 L 40.078125 -19.03125 C 40.078125 -12.832031 38.273438 -8 34.671875 -4.53125 C 31.066406 -1.0625 26.109375 0.671875 19.796875 0.671875 C 11.796875 0.671875 5.054688 -2.457031 -0.421875 -8.71875 L 6.453125 -18.703125 C 10.648438 -14.335938 14.757812 -12.15625 18.78125 -12.15625 C 22.976562 -12.15625 25.078125 -14.5625 25.078125 -19.375 L 25.078125 -46.703125 L 4.953125 -46.703125 L 4.953125 -58.78125 Z M 40.078125 -58.78125 "/></g></g></g><g fill="#000000" fill-opacity="1"><g transform="translate(398.455407, 674.967967)"><g><path d="M 70.359375 0 L 57.1875 0 L 57.109375 -38.15625 L 43.015625 -5.875 L 33.296875 -5.875 L 19.203125 -38.15625 L 19.203125 0 L 5.875 0 L 5.875 -58.78125 L 22.21875 -58.78125 L 38.15625 -23.8125 L 54.09375 -58.78125 L 70.359375 -58.78125 Z M 70.359375 0 "/></g></g></g></svg>